<?xml version="1.0" standalone="no"?>
<!DOCTYPE svg PUBLIC "-//W3C//DTD SVG 1.1//EN" "http://www.w3.org/Graphics/SVG/1.1/DTD/svg11.dtd" >
<svg xmlns="http://www.w3.org/2000/svg" xmlns:xlink="http://www.w3.org/1999/xlink" version="1.1" viewBox="-10 0 845 1000">
   <path fill="currentColor"
d="M276 280l55 54l-82 81l-49 41l1 3l94 -5h267q24 0 46.5 -6.5t40 -20t27.5 -34.5t10 -50q0 -30 -10 -51t-27.5 -34.5t-40 -19.5t-46.5 -6v-77q42 0 80.5 12t67.5 35.5t46 59t17 82.5t-17 82t-46 58.5t-67.5 35.5t-80.5 12h-267l-94 -5l-1 3l49 41l82 81l-55 54l-213 -213z
" />
</svg>
