<?xml version="1.0" standalone="no"?>
<!DOCTYPE svg PUBLIC "-//W3C//DTD SVG 1.1//EN" "http://www.w3.org/Graphics/SVG/1.1/DTD/svg11.dtd" >
<svg xmlns="http://www.w3.org/2000/svg" xmlns:xlink="http://www.w3.org/1999/xlink" version="1.1" viewBox="-10 0 845 1000">
   <path fill="currentColor"
d="M560 706l-55 -54l82 -81l49 -41l-1 -3l-94 5h-267q-42 0 -80.5 -12t-67.5 -35.5t-46 -58.5t-17 -82t17 -82.5t46 -59t67.5 -35.5t80.5 -12v77q-24 0 -46.5 6t-40 19.5t-27.5 34.5t-10 51q0 29 10 50t27.5 34.5t40 20t46.5 6.5h267l94 5l1 -3l-49 -41l-82 -81l55 -54
l213 213z" />
</svg>
