<?xml version="1.0" encoding="UTF-8" standalone="no"?>
<!DOCTYPE svg PUBLIC "-//W3C//DTD SVG 1.1//EN" "http://www.w3.org/Graphics/SVG/1.1/DTD/svg11.dtd">
<svg width="100%" height="100%" viewBox="0 0 800 600" version="1.1" xmlns="http://www.w3.org/2000/svg" xmlns:xlink="http://www.w3.org/1999/xlink" xml:space="preserve" xmlns:serif="http://www.serif.com/" style="fill-rule:evenodd;clip-rule:evenodd;stroke-linecap:round;stroke-linejoin:round;stroke-miterlimit:1.5;">
    <g transform="matrix(0.785643,0,0,0.839872,-47.153,48.0383)">
        <g transform="matrix(1,0,0,1,-16.5511,4.93021)">
            <path d="M182.596,104.565C125.769,104.728 173.377,295.378 116.551,295.069" style="fill:none;stroke:black;stroke-width:6.15px;"/>
        </g>
        <g transform="matrix(1,0,0,-1,-16.5511,595.07)">
            <path d="M182.596,104.565C125.769,104.728 173.377,295.378 116.551,295.069" style="fill:none;stroke:black;stroke-width:6.15px;"/>
        </g>
    </g>
    <g transform="matrix(0.5,0,0,0.414256,250,54.6411)">
        <g transform="matrix(1,0,0,1,-16.5511,4.93021)">
            <path d="M182.596,104.565C125.769,104.728 173.377,295.378 116.551,295.069" style="fill:none;stroke:black;stroke-width:10.89px;"/>
        </g>
        <g transform="matrix(1,0,0,-1,-16.5511,595.07)">
            <path d="M182.596,104.565C125.769,104.728 173.377,295.378 116.551,295.069" style="fill:none;stroke:black;stroke-width:10.89px;"/>
        </g>
    </g>
    <g transform="matrix(0.5,0,0,0.419936,250,294.019)">
        <g transform="matrix(1,0,0,1,-16.5511,4.93021)">
            <path d="M182.596,104.565C125.769,104.728 173.377,295.378 116.551,295.069" style="fill:none;stroke:black;stroke-width:10.83px;"/>
        </g>
        <g transform="matrix(1,0,0,-1,-16.5511,595.07)">
            <path d="M182.596,104.565C125.769,104.728 173.377,295.378 116.551,295.069" style="fill:none;stroke:black;stroke-width:10.83px;"/>
        </g>
    </g>
    <g transform="matrix(1,0,0,1,-101.132,82.9245)">
        <text x="218.78px" y="116.583px" style="font-family:'Charter-Roman', 'Charter', serif;font-size:56px;">serif</text>
    </g>
    <g transform="matrix(1,0,0,1,139.157,18.737)">
        <text x="218.78px" y="116.583px" style="font-family:'Charter-Roman', 'Charter', serif;font-size:48px;">Charter</text>
    </g>
    <g transform="matrix(1,0,0,1,138.337,139.135)">
        <text x="218.78px" y="116.583px" style="font-family:'Charter-Roman', 'Charter', serif;font-size:48px;">Source Han Serif</text>
    </g>
    <g transform="matrix(1,0,0,1,139.532,258.737)">
        <text x="218.78px" y="116.583px" style="font-family:'Charter-Roman', 'Charter', serif;font-size:48px;">IBM Plex Sans</text>
    </g>
    <g transform="matrix(1,0,0,1,138.337,376.206)">
        <text x="218.78px" y="116.583px" style="font-family:'Charter-Roman', 'Charter', serif;font-size:48px;">Source Han Sans</text>
    </g>
    <g transform="matrix(1,0,0,1,-101.456,310.924)">
        <text x="218.78px" y="116.583px" style="font-family:'Charter-Roman', 'Charter', serif;font-size:56px;">sans</text>
    </g>
</svg>
